<svg width="800" height="800" viewBox="0 0 800 800" fill="none" xmlns="http://www.w3.org/2000/svg">
<path d="M465.797 609.703C459.004 609.703 453.498 604.198 453.498 597.405C454.975 567.247 458.68 537.236 464.57 507.615L427.669 441.319H55.5904L163.092 636.772C173.492 655.576 192.7 667.845 214.136 669.364H506.261C511.089 669.712 515.923 668.76 520.25 666.593C524.577 664.426 528.246 661.136 530.864 657.065C536.076 646.939 535.515 634.806 529.387 625.211L484.245 543.045C481.376 561.386 479.441 579.856 478.465 598.392C477.94 604.947 472.361 609.927 465.794 609.708L465.797 609.703ZM119.547 470.592C119.547 463.799 125.052 458.294 131.846 458.294H383.267C390.061 458.294 395.566 463.799 395.566 470.592C395.566 477.385 390.061 482.891 383.267 482.891H131.846C125.052 482.891 119.547 477.385 119.547 470.592ZM154.728 524.834C147.935 524.834 142.43 519.329 142.43 512.536C142.43 505.742 147.935 500.237 154.728 500.237H406.009C412.803 500.237 418.308 505.742 418.308 512.536C418.308 519.329 412.803 524.834 406.009 524.834H154.728ZM428.9 566.778H177.478C170.685 566.778 165.18 561.273 165.18 554.48C165.18 547.686 170.685 542.181 177.478 542.181H428.884C435.678 542.181 441.189 547.686 441.189 554.48C441.189 561.273 435.678 566.778 428.884 566.778H428.9ZM391.627 375.387C381.196 356.631 361.994 344.412 340.583 342.917H48.4579C43.6362 342.618 38.8265 343.601 34.5052 345.761C30.184 347.922 26.5157 351.181 23.8607 355.216C18.7582 365.378 19.3624 377.475 25.4598 387.077L42.0613 416.349H414.514L391.627 375.387ZM98.1579 401.217C94.6362 404.763 89.3201 405.831 84.7057 403.915C80.0915 401.998 77.0946 397.482 77.1251 392.483C77.1251 390.835 77.4608 389.205 78.1077 387.686C78.5899 386.276 79.2979 384.945 80.1951 383.755C82.5084 381.424 85.6517 380.111 88.9292 380.111C92.2129 380.111 95.3562 381.424 97.6632 383.755C98.7496 384.945 99.6224 386.319 100.245 387.814C100.935 389.273 101.27 390.872 101.228 392.483C101.319 395.675 100.227 398.788 98.1579 401.217ZM135.059 401.217H135.053C132.697 403.463 129.578 404.739 126.325 404.788C119.532 404.788 114.021 399.276 114.021 392.483C114.039 389.199 115.363 386.05 117.713 383.755C122.511 378.982 130.256 378.982 135.054 383.755C136.14 384.976 137.05 386.343 137.764 387.814C138.35 389.297 138.643 390.884 138.625 392.483C138.545 395.761 137.227 398.88 134.932 401.217L135.059 401.217ZM171.961 401.217H171.955C169.599 403.463 166.48 404.739 163.221 404.788C161.61 404.824 160.01 404.489 158.546 403.799C156.885 403.231 155.341 402.352 153.998 401.217C151.752 398.861 150.477 395.742 150.428 392.483C150.452 390.878 150.782 389.291 151.416 387.814C152.533 384.719 154.969 382.29 158.057 381.167C162.635 379.245 167.926 380.264 171.46 383.755C172.547 384.976 173.456 386.343 174.17 387.814C174.756 389.297 175.049 390.884 175.031 392.483C175.116 395.718 173.92 398.855 171.711 401.217L171.961 401.217ZM502.711 456.57H502.705C494.697 484.848 488.496 513.602 484.131 542.667L464.821 507.486V507.492C469.929 480.887 476.582 454.598 484.749 428.769C487.581 445.248 489.912 455.831 489.912 455.831C494.02 456.789 498.262 457.04 502.461 456.57L502.711 456.57ZM775.273 154.977C750.677 176.87 711.314 218.812 699.383 270.473C698.425 275.124 694.885 278.811 690.276 279.946L635.784 293.227L677.233 327.669H677.239C682.207 331.85 683.074 339.175 679.21 344.399C667.955 360.079 655.626 374.954 642.309 388.924L586.956 356.332C584.142 354.281 580.59 353.524 577.184 354.239C573.778 354.959 570.836 357.083 569.091 360.092C567.339 363.101 566.948 366.714 568.01 370.028C569.072 373.343 571.483 376.053 574.657 377.487L623.857 406.515C608.098 421.292 589.696 432.981 569.615 440.951C548.301 449.477 525.829 454.745 502.946 456.576C526.682 372.073 573.674 269.373 666.165 208.482V208.476C671.713 204.692 673.196 197.16 669.503 191.551C665.811 185.948 658.303 184.337 652.639 187.938C559.897 248.453 510.696 344.641 484.499 428.532C476.381 380.564 465.064 282.53 499.257 246.125C506.392 238.502 514.51 229.889 523.854 221.528L523.86 256.086C523.86 262.88 529.365 268.391 536.159 268.391C542.952 268.391 548.463 262.88 548.463 256.086V198.646C578.371 172.566 613.557 153.26 651.624 142.047C689.691 130.841 729.73 127.991 769.001 133.704C773.67 134.454 777.497 137.824 778.834 142.365C780.176 146.906 778.791 151.813 775.275 154.981L775.273 154.977Z" fill="#096A05"/>
</svg>
