<svg width="422" height="422" viewBox="0 0 422 422" fill="none" xmlns="http://www.w3.org/2000/svg">
<path d="M412.431 192.406L238.752 51.3161C223.191 38.6759 198.809 38.6759 183.227 51.3161L9.5885 192.406C4.11198 196.842 3.30706 204.85 7.7083 210.3C10.2389 213.388 13.9254 214.985 17.6212 214.985C20.4126 214.985 23.2522 214.064 25.6283 212.142L54.3985 188.758V354.731C54.3985 368.721 65.8568 380.153 79.8207 380.153H160.417V281.387C160.417 267.398 171.85 255.939 185.839 255.939H236.174C250.164 255.939 261.622 267.398 261.622 281.387V380.153H342.193C356.182 380.153 367.64 368.721 367.64 354.731L367.634 188.783L396.404 212.154C401.855 216.59 409.862 215.747 414.299 210.299C418.697 204.835 417.882 196.841 412.431 192.405L412.431 192.406Z" fill="#096A05"/>
</svg>
