<svg width="800" height="800" viewBox="0 0 800 800" fill="none" xmlns="http://www.w3.org/2000/svg">
<path d="M98.6565 465.375C109.301 471.564 118.86 479.456 126.964 488.727C126.183 501.654 123.119 514.331 117.907 526.184C108.397 553.083 97.6363 583.581 114.922 607.3C132.206 631.013 164.813 630.261 193.645 629.602C206.341 628.332 219.158 629.199 231.561 632.165C238.134 642.913 242.84 654.706 245.471 667.028C253.607 694.743 262.89 726.067 291.394 735.448H291.388C295.96 736.913 300.727 737.67 305.53 737.682C328.596 734.367 350.03 723.882 366.797 707.701C376.508 698.832 387.757 691.819 399.994 687.004C412.354 691.777 423.73 698.796 433.546 707.701C456.013 724.857 481.464 744.468 508.985 735.416C537.421 726.169 546.705 694.743 554.908 667.063V667.057C557.539 654.746 562.238 642.966 568.812 632.224C581.178 629.197 593.971 628.312 606.635 629.6C635.432 630.289 667.871 631.242 685.359 607.298C702.84 583.354 691.92 553.081 682.344 526.151H682.337C677.107 514.329 673.988 501.689 673.121 488.792C681.221 479.496 690.796 471.598 701.46 465.403C725.471 449.003 752.729 430.307 752.729 399.998C752.729 369.689 725.507 351.061 701.46 334.629C690.804 328.44 681.234 320.548 673.121 311.278C673.896 298.375 676.93 285.711 682.075 273.851C691.621 246.923 702.413 216.417 685.09 192.704C667.775 168.992 635.072 169.743 606.367 170.403H606.373C593.69 171.739 580.873 170.873 568.489 167.845C561.885 157.103 557.173 145.311 554.548 132.977C546.412 105.261 537.129 73.9376 508.625 64.5563C481.14 55.7001 455.683 75.1826 433.186 92.3032C423.475 101.172 412.226 108.184 399.995 113C387.629 108.227 376.253 101.208 366.437 92.3032C344.001 75.2798 318.647 55.6032 291.028 64.5876C262.592 73.8345 253.308 105.261 245.104 132.978H245.111C242.492 145.271 237.823 157.038 231.298 167.78C218.884 170.771 206.061 171.656 193.353 170.404C164.556 169.617 132.117 168.762 114.63 192.706C97.1483 216.65 108.068 246.923 117.645 273.821H117.651C122.912 285.65 126.031 298.328 126.867 311.248C118.768 320.531 109.203 328.429 98.5593 334.631C74.5483 351.031 47.2905 369.695 47.2905 400C47.2905 430.309 74.6455 448.908 98.6565 465.375ZM284.203 366.217C288.811 361.603 295.061 359.009 301.586 359.009C308.105 359.009 314.361 361.603 318.969 366.217L369.481 416.73L483.624 331.122C488.842 327.21 495.404 325.531 501.867 326.453C508.325 327.374 514.154 330.823 518.066 336.041C521.978 341.266 523.663 347.821 522.735 354.285C521.813 360.743 518.365 366.572 513.146 370.484L381.945 468.885C377.209 472.437 371.349 474.165 365.442 473.743C359.54 473.322 353.986 470.783 349.798 466.59L284.198 400.99H284.204C279.584 396.382 276.996 390.126 276.996 383.607C276.996 377.083 279.583 370.826 284.203 366.217Z" fill="#096A05"/>
</svg>
